<?xml version="1.0" standalone="no"?>
<!DOCTYPE svg PUBLIC "-//W3C//DTD SVG 20010904//EN"
 "http://www.w3.org/TR/2001/REC-SVG-20010904/DTD/svg10.dtd">
<svg version="1.0" xmlns="http://www.w3.org/2000/svg"
 width="500.000000pt" height="500.000000pt" viewBox="0 0 500.000000 500.000000"
 preserveAspectRatio="xMidYMid meet">

<g transform="translate(0.000000,500.000000) scale(0.100000,-0.100000)"
fill="#000000" stroke="none">
<path d="M3525 4676 c-231 -108 -232 -435 -2 -542 73 -33 181 -34 252 0 180
85 227 319 94 471 -79 90 -235 122 -344 71z"/>
<path d="M3455 3623 c-102 -257 -195 -478 -206 -491 -23 -30 -25 -94 -3 -116
11 -11 34 -16 78 -16 107 0 146 -23 146 -88 0 -35 -207 -868 -250 -1004 -17
-54 -34 -98 -38 -98 -4 0 -126 299 -271 665 l-265 665 -93 0 -92 0 -11 -42
c-50 -195 -224 -824 -277 -1002 -36 -122 -69 -236 -75 -253 -5 -18 -13 -33
-18 -33 -6 0 -10 2 -10 4 0 23 -358 1004 -385 1055 -75 142 -186 233 -326 266
-81 19 -303 20 -339 2 -20 -10 -26 -21 -28 -59 -4 -56 14 -72 93 -83 111 -15
177 -66 241 -188 21 -40 151 -385 289 -767 l251 -695 114 0 114 0 190 627
c104 345 192 625 195 622 3 -3 115 -285 248 -627 l241 -622 111 -3 c107 -3
111 -2 121 20 5 13 107 347 226 743 118 396 227 741 241 767 28 51 79 92 134
109 19 5 76 13 128 18 61 5 96 13 102 22 28 42 5 113 -186 592 -104 262 -193
477 -196 477 -4 0 -91 -210 -194 -467z m360 -192 c86 -150 153 -276 150 -280
-10 -9 -565 -13 -605 -4 l-36 8 160 282 c89 155 164 279 168 275 4 -4 77 -130
163 -281z"/>
</g>
</svg>
